<mxfile host="app.diagrams.net" modified="2022-06-09T23:36:49.769Z" agent="5.0 (X11; Linux x86_64) AppleWebKit/537.36 (KHTML, like Gecko) Chrome/102.0.0.0 Safari/537.36" etag="WxRx0I7WShi4LRAqStWJ" version="19.0.3" type="github">
  <diagram id="C5RBs43oDa-KdzZeNtuy" name="Page-1">
    <mxGraphModel dx="918" dy="543" grid="1" gridSize="10" guides="1" tooltips="1" connect="1" arrows="1" fold="1" page="1" pageScale="1" pageWidth="827" pageHeight="1169" math="0" shadow="0">
      <root>
        <mxCell id="WIyWlLk6GJQsqaUBKTNV-0" />
        <mxCell id="WIyWlLk6GJQsqaUBKTNV-1" parent="WIyWlLk6GJQsqaUBKTNV-0" />
        <mxCell id="lAE0gaK0SMhXjGEfoFn3-16" value="" style="rounded=0;whiteSpace=wrap;html=1;fillColor=none;" vertex="1" parent="WIyWlLk6GJQsqaUBKTNV-1">
          <mxGeometry x="40" y="320" width="760" height="40" as="geometry" />
        </mxCell>
        <mxCell id="lAE0gaK0SMhXjGEfoFn3-11" value="" style="edgeStyle=orthogonalEdgeStyle;rounded=0;orthogonalLoop=1;jettySize=auto;html=1;" edge="1" parent="WIyWlLk6GJQsqaUBKTNV-1" source="lAE0gaK0SMhXjGEfoFn3-0" target="lAE0gaK0SMhXjGEfoFn3-10">
          <mxGeometry relative="1" as="geometry" />
        </mxCell>
        <mxCell id="lAE0gaK0SMhXjGEfoFn3-0" value="" style="whiteSpace=wrap;html=1;aspect=fixed;" vertex="1" parent="WIyWlLk6GJQsqaUBKTNV-1">
          <mxGeometry x="40" y="40" width="220" height="220" as="geometry" />
        </mxCell>
        <mxCell id="lAE0gaK0SMhXjGEfoFn3-3" value="" style="group" vertex="1" connectable="0" parent="WIyWlLk6GJQsqaUBKTNV-1">
          <mxGeometry x="80" y="160" width="140" height="50" as="geometry" />
        </mxCell>
        <mxCell id="lAE0gaK0SMhXjGEfoFn3-1" value="" style="rounded=1;whiteSpace=wrap;html=1;" vertex="1" parent="lAE0gaK0SMhXjGEfoFn3-3">
          <mxGeometry width="140" height="20" as="geometry" />
        </mxCell>
        <mxCell id="lAE0gaK0SMhXjGEfoFn3-2" value="" style="rounded=1;whiteSpace=wrap;html=1;" vertex="1" parent="lAE0gaK0SMhXjGEfoFn3-3">
          <mxGeometry y="30" width="140" height="20" as="geometry" />
        </mxCell>
        <mxCell id="lAE0gaK0SMhXjGEfoFn3-6" value="" style="group" vertex="1" connectable="0" parent="WIyWlLk6GJQsqaUBKTNV-1">
          <mxGeometry x="80" y="80" width="133" height="44" as="geometry" />
        </mxCell>
        <mxCell id="lAE0gaK0SMhXjGEfoFn3-4" value="Canto&lt;br&gt;de&lt;br&gt;Maria" style="text;html=1;strokeColor=none;fillColor=none;align=center;verticalAlign=middle;whiteSpace=wrap;rounded=0;" vertex="1" parent="lAE0gaK0SMhXjGEfoFn3-6">
          <mxGeometry y="7" width="60" height="30" as="geometry" />
        </mxCell>
        <mxCell id="lAE0gaK0SMhXjGEfoFn3-5" value="" style="shape=or;whiteSpace=wrap;html=1;rotation=-90;" vertex="1" parent="lAE0gaK0SMhXjGEfoFn3-6">
          <mxGeometry x="81" y="-8" width="44" height="60" as="geometry" />
        </mxCell>
        <mxCell id="lAE0gaK0SMhXjGEfoFn3-7" value="Login" style="text;html=1;strokeColor=none;fillColor=none;align=center;verticalAlign=middle;whiteSpace=wrap;rounded=0;" vertex="1" parent="WIyWlLk6GJQsqaUBKTNV-1">
          <mxGeometry x="30" y="10" width="60" height="30" as="geometry" />
        </mxCell>
        <mxCell id="lAE0gaK0SMhXjGEfoFn3-9" value="" style="shape=cylinder3;whiteSpace=wrap;html=1;boundedLbl=1;backgroundOutline=1;size=15;fillColor=none;" vertex="1" parent="WIyWlLk6GJQsqaUBKTNV-1">
          <mxGeometry x="490" y="110" width="60" height="80" as="geometry" />
        </mxCell>
        <mxCell id="lAE0gaK0SMhXjGEfoFn3-12" value="" style="edgeStyle=orthogonalEdgeStyle;rounded=0;orthogonalLoop=1;jettySize=auto;html=1;" edge="1" parent="WIyWlLk6GJQsqaUBKTNV-1" source="lAE0gaK0SMhXjGEfoFn3-10" target="lAE0gaK0SMhXjGEfoFn3-9">
          <mxGeometry relative="1" as="geometry" />
        </mxCell>
        <mxCell id="lAE0gaK0SMhXjGEfoFn3-10" value="" style="sketch=0;html=1;dashed=0;whitespace=wrap;fillColor=#2875E2;strokeColor=#ffffff;points=[[0.005,0.63,0],[0.1,0.2,0],[0.9,0.2,0],[0.5,0,0],[0.995,0.63,0],[0.72,0.99,0],[0.5,1,0],[0.28,0.99,0]];shape=mxgraph.kubernetes.icon;prIcon=api" vertex="1" parent="WIyWlLk6GJQsqaUBKTNV-1">
          <mxGeometry x="334" y="105" width="80" height="90" as="geometry" />
        </mxCell>
        <mxCell id="lAE0gaK0SMhXjGEfoFn3-13" value="Home" style="text;html=1;strokeColor=none;fillColor=none;align=center;verticalAlign=middle;whiteSpace=wrap;rounded=0;" vertex="1" parent="WIyWlLk6GJQsqaUBKTNV-1">
          <mxGeometry x="30" y="290" width="60" height="30" as="geometry" />
        </mxCell>
        <mxCell id="lAE0gaK0SMhXjGEfoFn3-15" value="" style="shape=image;html=1;verticalAlign=top;verticalLabelPosition=bottom;labelBackgroundColor=#ffffff;imageAspect=0;aspect=fixed;image=https://cdn1.iconfinder.com/data/icons/ionicons-fill-vol-2/512/menu-128.png;fillColor=none;" vertex="1" parent="WIyWlLk6GJQsqaUBKTNV-1">
          <mxGeometry x="52" y="326" width="28" height="28" as="geometry" />
        </mxCell>
        <mxCell id="lAE0gaK0SMhXjGEfoFn3-19" value="" style="group" vertex="1" connectable="0" parent="WIyWlLk6GJQsqaUBKTNV-1">
          <mxGeometry x="120" y="329" width="80" height="25" as="geometry" />
        </mxCell>
        <mxCell id="lAE0gaK0SMhXjGEfoFn3-17" value="" style="triangle;whiteSpace=wrap;html=1;fillColor=none;rotation=90;" vertex="1" parent="lAE0gaK0SMhXjGEfoFn3-19">
          <mxGeometry x="60" y="5" width="10" height="10" as="geometry" />
        </mxCell>
        <mxCell id="lAE0gaK0SMhXjGEfoFn3-18" value="" style="rounded=0;whiteSpace=wrap;html=1;fillColor=none;" vertex="1" parent="lAE0gaK0SMhXjGEfoFn3-19">
          <mxGeometry width="80" height="20" as="geometry" />
        </mxCell>
        <mxCell id="lAE0gaK0SMhXjGEfoFn3-20" value="Projeto" style="text;html=1;strokeColor=none;fillColor=none;align=center;verticalAlign=middle;whiteSpace=wrap;rounded=0;" vertex="1" parent="lAE0gaK0SMhXjGEfoFn3-19">
          <mxGeometry y="-5" width="60" height="30" as="geometry" />
        </mxCell>
        <mxCell id="lAE0gaK0SMhXjGEfoFn3-22" value="" style="rounded=0;whiteSpace=wrap;html=1;fillColor=none;" vertex="1" parent="WIyWlLk6GJQsqaUBKTNV-1">
          <mxGeometry x="40" y="680" width="760" height="220" as="geometry" />
        </mxCell>
        <mxCell id="lAE0gaK0SMhXjGEfoFn3-24" value="" style="rounded=0;whiteSpace=wrap;html=1;fillColor=none;" vertex="1" parent="WIyWlLk6GJQsqaUBKTNV-1">
          <mxGeometry x="40" y="680" width="760" height="40" as="geometry" />
        </mxCell>
        <mxCell id="lAE0gaK0SMhXjGEfoFn3-29" value="" style="rounded=0;whiteSpace=wrap;html=1;fillColor=#f5f5f5;fontColor=#333333;strokeColor=#666666;" vertex="1" parent="WIyWlLk6GJQsqaUBKTNV-1">
          <mxGeometry x="40" y="680" width="140" height="220" as="geometry" />
        </mxCell>
        <mxCell id="lAE0gaK0SMhXjGEfoFn3-26" value="" style="shape=image;html=1;verticalAlign=top;verticalLabelPosition=bottom;labelBackgroundColor=#ffffff;imageAspect=0;aspect=fixed;image=https://cdn1.iconfinder.com/data/icons/ionicons-fill-vol-2/512/menu-128.png;fillColor=none;" vertex="1" parent="WIyWlLk6GJQsqaUBKTNV-1">
          <mxGeometry x="52" y="686" width="28" height="28" as="geometry" />
        </mxCell>
        <mxCell id="lAE0gaK0SMhXjGEfoFn3-30" value="" style="strokeWidth=1;html=1;shadow=0;dashed=0;shape=mxgraph.android.rrect;rSize=0;strokeColor=#eeeeee;fillColor=#ffffff;gradientColor=none;" vertex="1" parent="WIyWlLk6GJQsqaUBKTNV-1">
          <mxGeometry x="40" y="720" width="140" height="150" as="geometry" />
        </mxCell>
        <mxCell id="lAE0gaK0SMhXjGEfoFn3-31" value="Menu Item 1" style="strokeColor=inherit;fillColor=inherit;gradientColor=inherit;strokeWidth=1;html=1;shadow=0;dashed=0;shape=mxgraph.android.rrect;rSize=0;align=left;spacingLeft=10;fontSize=8;fontColor=#333333;" vertex="1" parent="lAE0gaK0SMhXjGEfoFn3-30">
          <mxGeometry width="25.789473684210524" height="35.00000000000001" as="geometry" />
        </mxCell>
        <mxCell id="lAE0gaK0SMhXjGEfoFn3-32" value="Menu Item 2" style="strokeColor=inherit;fillColor=inherit;gradientColor=inherit;strokeWidth=1;html=1;shadow=0;dashed=0;shape=mxgraph.android.rrect;rSize=0;align=left;spacingLeft=10;fontSize=8;fontColor=#333333;" vertex="1" parent="lAE0gaK0SMhXjGEfoFn3-30">
          <mxGeometry y="35.00000000000001" width="25.789473684210524" height="35.00000000000001" as="geometry" />
        </mxCell>
        <mxCell id="lAE0gaK0SMhXjGEfoFn3-33" value="Menu Item 3" style="strokeColor=inherit;fillColor=inherit;gradientColor=inherit;strokeWidth=1;html=1;shadow=0;dashed=0;shape=mxgraph.android.rrect;rSize=0;align=left;spacingLeft=10;fontSize=8;fontColor=#333333;" vertex="1" parent="lAE0gaK0SMhXjGEfoFn3-30">
          <mxGeometry y="70.00000000000001" width="25.789473684210524" height="35.00000000000001" as="geometry" />
        </mxCell>
        <mxCell id="lAE0gaK0SMhXjGEfoFn3-34" value="Menu Item 4" style="strokeColor=inherit;fillColor=inherit;gradientColor=inherit;strokeWidth=1;html=1;shadow=0;dashed=0;shape=mxgraph.android.rrect;rSize=0;align=left;spacingLeft=10;fontSize=8;fontColor=#333333;" vertex="1" parent="lAE0gaK0SMhXjGEfoFn3-30">
          <mxGeometry y="105" width="25.789473684210524" height="35.00000000000001" as="geometry" />
        </mxCell>
        <mxCell id="lAE0gaK0SMhXjGEfoFn3-8" value="" style="rounded=0;whiteSpace=wrap;html=1;fillColor=none;" vertex="1" parent="WIyWlLk6GJQsqaUBKTNV-1">
          <mxGeometry x="40" y="360" width="760" height="280" as="geometry" />
        </mxCell>
        <mxCell id="lAE0gaK0SMhXjGEfoFn3-45" value="" style="group" vertex="1" connectable="0" parent="WIyWlLk6GJQsqaUBKTNV-1">
          <mxGeometry x="270" y="390" width="380" height="205" as="geometry" />
        </mxCell>
        <mxCell id="lAE0gaK0SMhXjGEfoFn3-42" value="" style="rounded=1;whiteSpace=wrap;html=1;fillColor=none;" vertex="1" parent="lAE0gaK0SMhXjGEfoFn3-45">
          <mxGeometry y="105" width="180" height="100" as="geometry" />
        </mxCell>
        <mxCell id="lAE0gaK0SMhXjGEfoFn3-36" value="" style="verticalLabelPosition=bottom;shadow=0;dashed=0;align=center;html=1;verticalAlign=top;strokeWidth=1;shape=mxgraph.mockup.graphics.barChart;strokeColor=none;strokeColor2=none;strokeColor3=#666666;fillColor2=#008cff;fillColor3=#dddddd;fillColor=none;" vertex="1" parent="lAE0gaK0SMhXjGEfoFn3-45">
          <mxGeometry x="10" y="10" width="160" height="80" as="geometry" />
        </mxCell>
        <mxCell id="lAE0gaK0SMhXjGEfoFn3-37" value="" style="verticalLabelPosition=bottom;shadow=0;dashed=0;align=center;html=1;verticalAlign=top;strokeWidth=1;shape=mxgraph.mockup.graphics.columnChart;strokeColor=none;strokeColor2=none;strokeColor3=#666666;fillColor2=#008cff;fillColor3=#dddddd;fillColor=none;" vertex="1" parent="lAE0gaK0SMhXjGEfoFn3-45">
          <mxGeometry x="210" y="10" width="160" height="80" as="geometry" />
        </mxCell>
        <mxCell id="lAE0gaK0SMhXjGEfoFn3-38" value="" style="verticalLabelPosition=bottom;shadow=0;dashed=0;align=center;html=1;verticalAlign=top;strokeWidth=1;shape=mxgraph.mockup.graphics.lineChart;strokeColor=none;strokeColor2=#666666;strokeColor3=#008cff;strokeColor4=#dddddd;fillColor=none;" vertex="1" parent="lAE0gaK0SMhXjGEfoFn3-45">
          <mxGeometry x="210" y="110" width="160" height="80" as="geometry" />
        </mxCell>
        <mxCell id="lAE0gaK0SMhXjGEfoFn3-44" value="" style="group" vertex="1" connectable="0" parent="lAE0gaK0SMhXjGEfoFn3-45">
          <mxGeometry width="380" height="205" as="geometry" />
        </mxCell>
        <mxCell id="lAE0gaK0SMhXjGEfoFn3-39" value="" style="html=1;verticalLabelPosition=bottom;align=center;labelBackgroundColor=#ffffff;verticalAlign=top;strokeWidth=2;strokeColor=#0080F0;shadow=0;dashed=0;shape=mxgraph.ios7.icons.pie_chart;fillColor=none;" vertex="1" parent="lAE0gaK0SMhXjGEfoFn3-44">
          <mxGeometry x="45" y="115" width="90" height="80" as="geometry" />
        </mxCell>
        <mxCell id="lAE0gaK0SMhXjGEfoFn3-40" value="" style="rounded=1;whiteSpace=wrap;html=1;fillColor=none;" vertex="1" parent="lAE0gaK0SMhXjGEfoFn3-44">
          <mxGeometry width="180" height="100" as="geometry" />
        </mxCell>
        <mxCell id="lAE0gaK0SMhXjGEfoFn3-41" value="" style="rounded=1;whiteSpace=wrap;html=1;fillColor=none;" vertex="1" parent="lAE0gaK0SMhXjGEfoFn3-44">
          <mxGeometry x="200" width="180" height="100" as="geometry" />
        </mxCell>
        <mxCell id="lAE0gaK0SMhXjGEfoFn3-43" value="" style="rounded=1;whiteSpace=wrap;html=1;fillColor=none;" vertex="1" parent="lAE0gaK0SMhXjGEfoFn3-44">
          <mxGeometry x="200" y="105" width="180" height="100" as="geometry" />
        </mxCell>
        <mxCell id="lAE0gaK0SMhXjGEfoFn3-49" value="" style="group" vertex="1" connectable="0" parent="WIyWlLk6GJQsqaUBKTNV-1">
          <mxGeometry x="220" y="730" width="560" height="160" as="geometry" />
        </mxCell>
        <mxCell id="lAE0gaK0SMhXjGEfoFn3-47" value="&lt;table border=&quot;1&quot; width=&quot;100%&quot; height=&quot;100%&quot; cellpadding=&quot;4&quot; style=&quot;width:100%;height:100%;border-collapse:collapse;&quot;&gt;&lt;tr style=&quot;background-color:#A7C942;color:#ffffff;border:1px solid #98bf21;&quot;&gt;&lt;th align=&quot;left&quot;&gt;Title 1&lt;/th&gt;&lt;th align=&quot;left&quot;&gt;Title 2&lt;/th&gt;&lt;th align=&quot;left&quot;&gt;Title 3&lt;/th&gt;&lt;/tr&gt;&lt;tr style=&quot;border:1px solid #98bf21;&quot;&gt;&lt;td&gt;Value 1&lt;/td&gt;&lt;td&gt;Value 2&lt;/td&gt;&lt;td&gt;Value 3&lt;/td&gt;&lt;/tr&gt;&lt;tr style=&quot;background-color:#EAF2D3;border:1px solid #98bf21;&quot;&gt;&lt;td&gt;Value 4&lt;/td&gt;&lt;td&gt;Value 5&lt;/td&gt;&lt;td&gt;Value 6&lt;/td&gt;&lt;/tr&gt;&lt;tr style=&quot;border:1px solid #98bf21;&quot;&gt;&lt;td&gt;Value 7&lt;/td&gt;&lt;td&gt;Value 8&lt;/td&gt;&lt;td&gt;Value 9&lt;/td&gt;&lt;/tr&gt;&lt;tr style=&quot;background-color:#EAF2D3;border:1px solid #98bf21;&quot;&gt;&lt;td&gt;Value 10&lt;/td&gt;&lt;td&gt;Value 11&lt;/td&gt;&lt;td&gt;Value 12&lt;/td&gt;&lt;/tr&gt;&lt;/table&gt;" style="text;html=1;strokeColor=#c0c0c0;fillColor=#ffffff;overflow=fill;rounded=0;" vertex="1" parent="lAE0gaK0SMhXjGEfoFn3-49">
          <mxGeometry width="280" height="160" as="geometry" />
        </mxCell>
        <mxCell id="lAE0gaK0SMhXjGEfoFn3-48" value="&lt;table border=&quot;1&quot; width=&quot;100%&quot; height=&quot;100%&quot; cellpadding=&quot;4&quot; style=&quot;width:100%;height:100%;border-collapse:collapse;&quot;&gt;&lt;tr style=&quot;background-color:#A7C942;color:#ffffff;border:1px solid #98bf21;&quot;&gt;&lt;th align=&quot;left&quot;&gt;Title 1&lt;/th&gt;&lt;th align=&quot;left&quot;&gt;Title 2&lt;/th&gt;&lt;th align=&quot;left&quot;&gt;Title 3&lt;/th&gt;&lt;/tr&gt;&lt;tr style=&quot;border:1px solid #98bf21;&quot;&gt;&lt;td&gt;Value 1&lt;/td&gt;&lt;td&gt;Value 2&lt;/td&gt;&lt;td&gt;Value 3&lt;/td&gt;&lt;/tr&gt;&lt;tr style=&quot;background-color:#EAF2D3;border:1px solid #98bf21;&quot;&gt;&lt;td&gt;Value 4&lt;/td&gt;&lt;td&gt;Value 5&lt;/td&gt;&lt;td&gt;Value 6&lt;/td&gt;&lt;/tr&gt;&lt;tr style=&quot;border:1px solid #98bf21;&quot;&gt;&lt;td&gt;Value 7&lt;/td&gt;&lt;td&gt;Value 8&lt;/td&gt;&lt;td&gt;Value 9&lt;/td&gt;&lt;/tr&gt;&lt;tr style=&quot;background-color:#EAF2D3;border:1px solid #98bf21;&quot;&gt;&lt;td&gt;Value 10&lt;/td&gt;&lt;td&gt;Value 11&lt;/td&gt;&lt;td&gt;Value 12&lt;/td&gt;&lt;/tr&gt;&lt;/table&gt;" style="text;html=1;strokeColor=#c0c0c0;fillColor=#ffffff;overflow=fill;rounded=0;" vertex="1" parent="lAE0gaK0SMhXjGEfoFn3-49">
          <mxGeometry x="280" width="280" height="160" as="geometry" />
        </mxCell>
      </root>
    </mxGraphModel>
  </diagram>
</mxfile>
